<svg id="Layer_1" data-name="Layer 1" xmlns="http://www.w3.org/2000/svg" xmlns:xlink="http://www.w3.org/1999/xlink" viewBox="0 0 1561.97 1002.09"><defs><style>.cls-1{fill:none;}.cls-2{clip-path:url(#clip-path);}.cls-3{fill:#d3e1d5;}.cls-4{fill:#a4c3ab;}.cls-5{fill:#69a27c;}.cls-6{fill:#e94c2e;}.cls-7{font-size:30px;fill:#fff;font-family:GrotesqueDispMTStd-BoldCn, Grotesque Disp MT Std;font-weight:700;}</style><clipPath id="clip-path"><rect class="cls-1" width="1561.96" height="1002.09"/></clipPath></defs><title>map</title><g class="cls-2"><path class="cls-3" d="M825,815.41c-4.36-.54-8.78-1-8.18-8.4,1.57-3.22,6.5-3,10.23-4.73,6.16-2.79,12.65-4.86,18.89-7.51,3.4-1.45,7.49-2,7.38-7.68-.07-3.83,5.61-2.36,6.21-3.53,3.14-4.17,1.11-6.33.43-9.12,9.78-7,21.2-10.91,32.41-15.22,5.13-2,5.15-1.9,6.88-7.32,7.21,2.49,8.14,9.9,11.72,16,35.36-13.67,69.67-29.63,108.5-36.48.47-.27.9-1.87.85-3.81a45.07,45.07,0,0,1,.59-5.25c38.09-5.63,76.59-7.77,115.59-13.92-.42-6.88,6.53-11.6,8-18.53a13.08,13.08,0,0,1,8.92-.2,8,8,0,0,1,1.17,1.77c1.54,5.13,3.35,10.21,4.42,15.43s4.51,8,8.9,7.94c11.27-.19,20.62,5.67,30.35,9.46,12.65,4.93,25.67,6.72,38.74,8,8.08.78,15.67.38,19.92,10.6,4.74-10.41,3.12-20.54,7.4-29.24l5.54,2.57c0,5.18.16,10.58,0,16-.6,17.69,7.42,25.28,21.66,30s26.12,13.09,37.64,22.16c10.76,8.45,21,17.58,31.91,25.8,6.88,5.19,10.25,14.1,19.2,17,6.43,2.11,10.63,6.67,14.82,12.31a195.56,195.56,0,0,0,27.69,29.73c1.61,1.43,3,3,3.24,5.4,1.94,22.15,11.3,42.37,16.78,63.6,3.32,12.84,7.33,25.36,7.56,38.89.13,7.37,3.3,14.67,1.19,22.14-10.15,3.92-104,3.16-114.53-1.09,2.72-6.53,4.83-13.33-.45-19.72l-.23.23c1.42-.9,2.71,0,4.7.42a34.31,34.31,0,0,0-8.51-28c-4.78-5.31-8.91-10.57-11.33-17.13-1-2.83-3.7-3.82-5.34-5.89l-.25.19c-10.69-9.08-20.09-19.65-32.07-27.24-4-2.53-5.14-6.71-5-11.35.14-5,0-10,0-14.65-3.18-1.81-5.69-1.82-7.66,0-6.09,5.72-14.87,7.62-21.12,2.93-6.55-4.92-15.34-5.73-20.93-12.18a5.7,5.7,0,0,0-3.89-1.76c-20,.3-38.37-9.29-58.22-9.8q-22.2-.59-44.4.83c-8.3.51-16.71,1.85-24.88,1-11.75-1.22-21.43,5.05-32.21,7.13-5.37,1-10.67,2.28-16,1.67-10.9-1.24-20.67,2.28-30,6.9-11.54,5.76-22.53,12.63-35.4,18.26-2.19-.43-1.82-4.29-3.95-5.91-19.62,1.65-73.64,20.92-93.55,32-2,2.77,1,5.64-.26,8.35-19.48,15.43-43.4,21.54-65.52,31.3-17,7.5-35.52,10.61-53.47,15-14.72,3.58-30,6.68-45.52,2.81a28,28,0,0,0-9.69-.7c-21.07,2.35-41.23-4.12-61.85-6-24.17-2.16-46.94-9-69.5-17.2a146.15,146.15,0,0,1-49-29.81c-4.55-4.15-9.17-8.24-14.35-11.26-9.2-5.37-14.07-14.13-19.58-22.46-2.77-4.18.88-9.91-3.42-14.11-4.08-4-7.47-8.68-11.83-13.84-13.9,4.3-20.17-4.49-24.94-16.11-4.34-10.55-13.4-17.74-20.09-26.63-9.47-12.58-12.6-27.79-18.23-42-1.4-3.54,2-7.26,2-11.38,0-13.92-3.71-20.63-16.87-25.14-7.17-2.46-9.78-7.17-11.66-13.83-3-10.7-4-21.74-6.22-32.56-.49-2.35-3.05-4.23-1.7-7,2.69-3.81,8.28-2.51,11.45-7.06,1.24-10.67-.82-22.15-1.09-33.66-.13-5.45-3.44-7.8-8.36-7.8-5.35,0-10.81-1-16.67,2-3.16-25.25-1.19-49.73-1.1-73.45-1.73-3.47-4-1.19-5.87-1.62-1.31-3.14-1-6.29-.22-9.45,1.54-1.75,3.5.68,5-.65,1-12.21,3.41-104.88-2.49-117.18-9.53-5.11-20-6.69-30.94-5.72-5.13.45-8.82,3-12.25,7.46-13,17-19.43,37.09-28.19,56.1-2.33,5.06-.14,10.75-1.8,15.92-8.88-1-9-1.25-6.71-13-5.85-4.6-5.85-4.6-5.4-19.48,2.46-2,5.16-4.27,7.94-6.43,3.69-2.87,5.14-6.4,5-11.2-.61-15.35,6.2-27.79,17.27-37.57,6-5.27,14.56-5.48,22.21-6.91,9.85-1.85,19.84-2.89,29.73-4.54,8.31-1.4,14.06-5.7,17.32-14,9.43-24.06,22-46.38,37-67.54,10.95-15.5,20-32.33,30.83-47.95,8.76-12.66,17.63-25.71,31.84-33.15,6-3.16,9.79-8.41,14.36-12.89,16.25-15.94,32.3-32.07,48.35-48.2,2.51-2.52,4.65-5.39,6.64-7.71,3.23-1.64,5,1.37,6.17,1.37l18.12-17.41c-.68-5.23-5.58-3.51-9.28-5.38,6.67-9.37,16.35-14.23,24.85-20.45Q602.06,125.9,616,115.75c7.57-5.53,15.87-9.71,24.21-14,24.19-12.3,48-25.28,73.43-35,5-1.91,10.95-6,15-4.73,8.27,2.64,15.11-.85,21.85-2.84,5.89-1.73,10.73-7.55,17.56-7.5,21.6.13,41.12-8.8,61.57-13.67a26.54,26.54,0,0,0,4.86-2.2c3.49-8.94,1.67-18,.39-28.14,8.6,8.21,9,17.28,6.74,27.05,7.7,3.94,14.74,3.59,22.82,2.6C883.69,35,903,28.16,922.7,35.3c6.26,2.26,12.93,1,19.37.28,23.81-2.58,47.36-2.61,70.67,4.19,7.53,2.2,15.69,1.93,23.52,2.67,25.73,2.47,51.41,5,77,8.68,18.49,2.64,37.46,2.1,55.88,5.08,14.36,2.32,28.77.9,43.1,3.5,15.76,2.86,31.46-1.55,46.93-4.51,24.52-4.7,48.84-10.38,73.13-16.2,12.43-3,21-11,29.8-18.32,8.42-7.05,15.23-15.31,27.74-13,1.09.21,2.47-1.18,3.72-1.82H1411c8.83,4.86,19.61-.94,28.21,5.16l.48.25c-4.12,1.57-6.49,3-6.65,9-.22,8.61,1.85,17.33-.31,25.87-1.31,5.18,1,10.13.78,15.42-.31,7-3.69,11.26-7.77,14.41-6.14,4.74-9.85,11.36-15.38,16.43-1.55,1.43-3.64,3-3.45,5.3,1,12-8.31,17.31-16.16,22.09-15.67,9.55-30.55,21-49.84,23.49-4.53.57-9.24,3.38-13.72,5.68-16.7,8.58-33.39,16.74-52.36,20.24-13,2.4-25.43,7.4-40.33,5.46,3.87,8.27,12.66,15.22,1.6,23.24-2.2-4.7.2-9.86-2.16-15-12.48-5-26.33-7.08-39.86-9.71-28.32-5.51-57.18-4.16-85.87-4.36-30.39-.2-60.78-.33-91.16-.14-18.36.12-36.45-1.66-54.66-3.87-11.28-1.37-22.75-2.73-34.3-3-18-.47-36-1.11-53.87-3.63a61,61,0,0,0-26.68,2c-4.37,1.34-6.88,3.76-7.9,8.94-2.15,10.9-5,21.62-4.13,32.73-3.05,2.28-5.73,1.65-8.83.55-1.27-10.62.15-22.14-8.62-31.86-10.66,2.22-21.14,6.68-31.91,10.11a64,64,0,0,0-15.58,7.2,31.1,31.1,0,0,1-9.79,4.28c-38.31,8.69-85.88,26.29-112.91,46.8-27.9,21.18-56.89,41.43-80.2,68.2-5.23,6-8.31,14.18-17.58,16.5-2.62.66-1.69,6.23-3.54,9.55-6.91,12.43-14.87,24.21-20.89,37.33-4.61,10.06-9.19,20.89-16.48,29.86-1.73,2.13-2.56,5-3.64,7.65-8.65,21.07-13.94,43.21-20.23,65a220,220,0,0,0-7.32,82.13c1.25,13.23,1.89,26.55,3.77,39.7,1.92,13.41,5,26.66,7.35,40,.69,3.84.85,7.78,1.19,11,1.87,3,5,1.52,7.33,3.45-4.85,1.23-10.67,1.4-7.3,8.57.7,1.5-.51,2.54-.81,3.79-2,8-.56,11.64,6.84,14.4,3,1.13,5.66,2.47,6.14,5.13,3.77,20.78,14.42,38.77,24.05,56.91,11.57,21.77,26.64,41.28,46.31,57.08,5-6.1,11-10.62,14.26-17,3.3.51,4.55,2,5.18,4.55l-13.1,17c19.15,17.36,42,26.44,66.36,32.48,19.92,5,40,8.24,60.75,6.85,25.2-1.68,49.73-5.71,72.77-16.94,8.94-4.36,18.63-7.23,28-10.67,3.85-1.4,7.1-.83,8.74,3.92-2.14,3.4-7.16,3.77-9.59,8.67a64,64,0,0,0,18.5-8.84l.75-.55c.28-.16.12.12-.48.82"/><path class="cls-3" d="M1554.26,858.48c-4-1.83-6.08-6-9.56-8.39-3.64-2.54-2.76-5.81-1.86-9-3.78-4-7.44-1.66-11.1-.48-4.21-2.51-6.71-6.17-8-12.14,7.63-2.33,14.68-5.45,22.5.51,1.53,1.17,5.26-.54,8-.92Z"/><path class="cls-3" d="M1554.26,767.36c-2.4-1.45-3.16-2.89,0-4.34Z"/><path class="cls-3" d="M775.44,476.91c-22.6-4.11-44-3.38-64.84-7.82-1.68-5.76.88-7.46,5.85-7.59,7.62-.21,14.85,2.16,22.28,3.17,12.12,1.66,24.41,1,37.06,3.95,5.42-22.44,3.2-45.05,8.3-66.63,9.85-2.7,9.11-2.79,10.34-13,3.1-25.63,4.14-51.43,8-77a449.67,449.67,0,0,0,5.29-57.5c2.93-1.56,6.79-2.05,7.49-.33,3.3,8.16,10.06,5.23,15.69,5.55s11.39.08,17.33.08c1.59,16.6-2,31.81-2.72,47.15-.82,17.19-4.39,34.1-5.85,51.27-1,11.05-1.11,22.24-3.53,33.19-1.82,8.22-.47,15.76,6.24,21.65a9,9,0,0,1,2.27,2.31c8.33,16.22,23.16,18.53,39.49,17.92-5.48,7.5-5.36,7.93,3.64,13A35,35,0,0,0,891,443.9a28.11,28.11,0,0,0,2.49-2.69c.21-2.87-3.71-3-2.69-6.06,11.34.44,22.64,1.19,34.38,5.4-5.43,11.37,1.43,15.67,11.6,18.42-4.53,4-9.1,1.12-11.71,3.08-2,1.6-2.26,3.36-2.91,5-2.78,7.23-8.61,10.73-15.62,9.34-13.78-2.71-27.81-2.79-41.73-4a103.05,103.05,0,0,1-12.09-2.06c-7.43,10.7-20.17,15.56-28.08,25.42C811,498,798,493.68,783.82,493.73c2.14-8.59-11.73-7.07-8.38-16.82"/><path class="cls-3" d="M1225.51,498.34c-7.35,0-14.7,1-21.68-.19-17.94-3.1-30.56,15.21-31.72,29.51-1.52,18.61-2.91,37.22-4.5,55.83a43.42,43.42,0,0,1-2,10.59c-5,14.06-4.41,28.92-6.78,43.33-2.07,12.65.26,25.89-5.16,38.05-2,1.23-4.13.52-7,.52-1.61-26.91,8.41-53,4.22-79.88-6.61,13.43-6.75,28.34-10.21,42.67-6.32,2-11.89-.7-18.34-2.51,6.88-48.37,17.14-96,25.39-144.5-11.34-8.55-25.84-.79-38.26-7.88-.62-4.45.6-7.33,6.77-6.41,11,1.64,21.82,4.37,34.52,3.17,11.64-72,25.72-143.54,38.69-216.88,3.12,4.31,1.37,7.39,2.73,10.13a40.19,40.19,0,0,0,18.14,3.61c.51-5.48,3.23-10.6,2.82-16.38-3.14-2.72-8.46,0-10.47-4.67,9.88-15.17,27.42-20.64,46.45-14-.66,10-9.47,17.78-7.9,28.56,1.48,10.17-2.61,20.24-1.66,30.28,2.46,3.39,6.53.58,10,3.66-14.67,1.47-27.37-3.52-40.28-6.16-7.72,9.5-8.46,18.08-3,27.26,2.3,3.87,1.21,8.62.14,12.43-6.43,23-8,46.87-12.67,70.16-2.54,12.54-5,25.07-7.23,37.69-1.75,10.11-2.16,20.48-5.34,30.4-1.21,3.75,1.26,6.34,5.23,6.38,11.15.1,21.78,4,32.84,4.39,7.58.28,7.83,4.38,6.3,10.88"/><path class="cls-3" d="M1302,705.59c2.51-9.05,6.73-16.71,7.08-25.89-5-2.09-9.91-4-14.72-6.21-3.78-1.7-7.34-3.37-10.42,1.19a3.34,3.34,0,0,1-2.78,1.29c-20-5.08-39.08,1.06-58.4,4.46-.6.11-1.32-.41-2.21-.72-.52-3.28,2.08-5.72,2.47-8.76,9.86-3.66,19.66-6.81,30.11-5.77,2.62-12.22-.89-34.41-6.72-44.62,3.83-14.15,15.1-22.13,24.91-31.28,4.63-4.31,16.65-7,21.38-3.37,6.08,4.71,12.91,9.62,13.93,18.36,2.29,19.66-6.4,36.94-12.32,54.79-.58,1.74-3.13,2.83-5.18,4.59,5.94,6.69,13.34,9.4,20.84,11.27,6.38,1.59,9.94-1.18,11.74-8.79.91-3.84,1.38-6.39,5.93-4.23,2.41,2.74-1.7,6.34,2.18,9.89,15.46.46,31.18-5.34,47.23-6.16,4.49,9.08,3.58,18.64,5.44,27.66,1.36,6.61-2.06,10.27-8.49,11.08-16.12,2-32.26,4.51-48.54,3.54-7.41-.44-15.05.28-23.46-2.32"/><path class="cls-3" d="M1417.2,262.46v6.25c-2,3-6,.65-8.12,4.18.72,5.52-1.9,11.2-2.55,17.23s-2.13,11.9-2.71,18a74.5,74.5,0,0,1-3.91,17.56c-2.08,5.87-1.32,12.06-3.17,17.89s-1.79,12-2.75,17.91c-.89,5.57-2.73,11.05-2.8,16.9a65.83,65.83,0,0,1-2.82,17.89c-1.33,4.39-2.91,8.27-3,13.22-.06,5.83-1.64,12.1-3.34,17.65-1.82,6-.91,12-2.92,17.94-1.88,5.53-1.33,11.94-4.07,18.21a37.58,37.58,0,0,1-22.28-3c2.53-17.8,4.57-35.42,8.07-52.85,3.57-17.7,5.74-35.67,8.91-53.45,2.13-11.89,5.53-23.54,6.58-35.65.29-3.33,1-6.85-2.29-8.74-5.1-3-3.15-8.05-1.48-10.18,8.41-10.75,5.26-22.07,2.53-33.23-1-4.29-1.42-7.58,2.34-11.17,13.1.58,25.88,5.08,39.74,7.47"/><path class="cls-3" d="M1068.69,451a3.4,3.4,0,0,1,.28,4.33c-.8,1.35-1,2.62,0,3.92,9.7,3.9,10.47,3.51,11-5.52,5.6-2.81,10.22.94,15.53,2.26-2.68,5.35-.35,11.44-3.79,16.65l6.06,3.36c1,8.21-13.17,8.12-8.17,17.16-4.93,2-8.44.66-12,.39,2.09-5.81-.29-8.17-6-8.23-6.26-.07-12.27.38-18-4.12-3-2.35-8.92-5.32-13.06,1.1-1.27,2-4.73.65-7.15-.08a29.2,29.2,0,0,0-14.92-.59v5.53c-10.38,1.4-20.1-2.74-30.1-2.67-8.89.07-16.35-5.29-25-5.86-4.59-.31-6.51-3.77-7.69-7.88,1.28-3.25,5.46-.91,7.26-3.56,2.78-5.72-2.92-6-5.6-8.17-.68-4.6.7-9.29-1.06-13.77,3.79-2.48,7.86-4,12.24-3.2,16.6,3.1,33.54,3.09,50.21,5.55a88.49,88.49,0,0,0,18.26.73c10.91-.68,21.31,3,31.76,2.67"/><path class="cls-3" d="M1275.77,333.79c2.69,2.94,4.85,5.28,8,8.69-16.23,3.36-10.3,18-15.38,27.67-5.41-.41-10.71-3-18.25-1.84,4.72-27.43,8.49-54,11.54-82.31,2.21,7,2.21,7,7.26,7.95,1.52-3.2.88-6.94,2.72-10.24,1-1.8,1.43-5.81-1.61-6.55-6.69-1.62-5.33-6.52-3.75-10,2.59-5.67-.77-12.57,5.37-18.37,2.84-1,10.23,2.79,9.35-6.41,14.39-.49,27.7,3.75,40.91,2.18,3.18,3.53,1.79,6.65,1.78,9.48-12.33-.2-23.81-4.59-36.68-3.24,1.84,8.27,3,15.61,2.26,23.05-.79,8.39,7.53,11.17,12.19,16.86-16,3.35-21.37,10.56-22.85,29.78a42.07,42.07,0,0,1-2.84,13.29"/><path class="cls-3" d="M267,486.94c-12.82-4.31-23.83-11-35.6-15.82-15.23-6.24-25.6-16.57-32-31.34-2.21-5.11-5-9.47-10.55-11.48-1.62-.59-3.68-1.63-4.3-3-4.6-10.39-14.42-12.92-23.79-15.79-9.83-3-19.75-5.86-30-7.22.81-11.23,3.33-12.95,13.6-11.14,8.46,1.49,16.94,2.73,25.26,5,2.35.64,5.4.89,7.49-.07,8.67-4,15.85,1.29,23.43,3.39,4,1.12,6,5.41,6.84,9.19,2.26,10.56,6.9,20.29,10,30.55.39,1.3,1.41,2.29,1,3.92-1.29,5.38,1.32,8.18,6.14,10.43,10.68,5,21,10.66,31.62,15.84,10.33,5.06,10.38,4.94,10.81,17.56"/><path class="cls-3" d="M1356.22,567.07c-14.29-1.7-27.59-5.83-40.92-6-6.09,6-6.78,15-14.37,19.25-5.93-6.8,1.64-9.88,3.72-14.33,2.43-5.2,7.71-8.57,9.18-14.15,6.76-4.64,13.3,3.63,20-.2,4.13-12,10.13-23.92,4.69-37.23-9.25-2.36-19.33-1.17-27.29-7.38,12.23-2.88,23.64,3.49,35.88,1.74,2.63-13.39,1.8-27.1,5.88-40.1,7.38-2.29,13.38,2.93,22.3,1.39-8,33.11-11.09,65.51-19,97"/><path class="cls-3" d="M41.07,349.27c-1.1-14.09-9-26.87-10.28-41.19,5.47,4.24,9.52,8,11,15.86s2.69,17,9.36,23.49c2.48,2.41,3.27,6.17,3.9,9.88-7.66,6.16-20-3.29-26.18,7.8C19.13,360,12.5,351.26,5.65,344.82c.57-15.86-5.37-30.92,2-45.54,5.79-1.18,9.46.26,9.34,7.44-.14,8.31.89,16.69.11,24.92-1.35,14.3,9.15,23.59,24,17.63"/><path class="cls-3" d="M1229.79,508.5c1.33-3.54.79-6.83-.27-10.47s1.18-6.88,5.17-6c13.44,3,27.15,4.78,40.28,9.06.41.14.55,1.13,1.14,2.45-6.88,2.8-13-1.22-19.24-2.06-8.49-1.15-8.64-1.74-11.19,6.47-3.49,11.2-3.79,22.95-6.52,34.78l14.59,3.47c-10,3.59-19.16-1.18-29.21-2.76-1.61-12.36,3.67-23.5,5.31-35.12,6.2,3.05,6.63,4.83,4,16.52,2.63-13.59,2.63-13.59-4-16.34"/><path class="cls-3" d="M1495.41,997.41c5.15-3.25,8.76-1.13,12.33-3.75,1.55-2.76,1-7.34,5.46-10,4.15-2.52.93-8.14,3.15-13,4.37-3.91,9.05-9.31,17.35-9.32,1.57,5.51,2.21,11.11-1.38,16.13-4.63,6.47-7.2,13.74-8.89,21.08-9.12,3.39-17.06-2.36-28-1.12"/><path class="cls-3" d="M56.78,348.39c12.83,5.23,20.1,16.14,28.85,25.14,2,2.07,1.07,6.17,0,9.33-13-5-25.6-19.78-28.87-34.47"/><path class="cls-3" d="M102.41,404.3C86.69,405.88,79.8,402,69.24,385.39c11.84-2.18,22.07,3.65,33.17,18.91"/><path class="cls-3" d="M99.56,394.76a45.09,45.09,0,0,0,24.9-8.38c2.28,5.1,4.77,9.85,2,16.05-5.28.9-11.13-.33-16,2.75C106,402.39,103,399,99.56,394.76"/><path class="cls-3" d="M270.88,895.72c2.35,1.3,4.8-1.5,6.38,1.61-1.1,3.6-5,2.71-6.89,4.84C258.93,890.44,258,882.61,267.15,876c4.78,5.67,3.61,12.52,3.73,19.72"/><path class="cls-3" d="M1276.14,35.8c-2.84-7.6-8.94-12.47-3.59-19.93.15-.22-3.73-3.65-2.09-6.93a8.12,8.12,0,0,1,6.91-.27c2.86,2.74,2.75,19.93-1.23,27.13"/><path class="cls-3" d="M1273.87,677.44c-.85,8.08-1.71,16.16-2.57,24.41-7.07.66-6.1-4.33-5.65-7.78.81-6.25-1.67-14.05,5.27-18l2.95,1.37"/><path class="cls-3" d="M1416.07,855.11c6.71-3.55,10.75-11.59,20.88-11.77-.59,12-12.17,11.48-17,17.3-2.92-1.34-3.07-3.57-3.87-5.53"/><path class="cls-3" d="M869.44,720.73c-9.56,7.95-20.73,12.39-32.78,14.91a264.24,264.24,0,0,1,32.78-14.91"/><path class="cls-3" d="M670.6,791.73c1.52,12.55-1.92,23.07-7.64,25.47-.72-8.8,3.38-15.9,7.64-25.47"/><path class="cls-3" d="M1455.4,28.8c-2.27-5.64-2.27-5.64-.08-19.83,1.19-1.15,3.32-1.21,3.88-.5,2.51,3.16,1.12,10.07-3.8,20.33"/><path class="cls-3" d="M1215.31,681.48c-5.92-.65-10.73-1.41-15.38-3.9,4.75-5.12,11.55-2.45,16.71-5.74,1.58,4.48-2.61,6.28-1.33,9.64"/><path class="cls-3" d="M1536.83,804.21c-5.33-9.88-6.23-21.13-10-31.06,1.5-3.79,4.74-3.32,7.32-4.14l-.28-.28c-4.51,4.41-3.45,9-1.7,14.54,2.18,6.84,5.23,13.72,4.27,21.27Z"/><path class="cls-3" d="M1304,507.78c-7-1.83-15.09,1-20.75-6.07,6.89,2.13,15.15-1.19,20.75,6.07"/><path class="cls-3" d="M1370.64,783.85l-25.76,3c8.41-2.41,16.65-6.7,25.59-2.84Z"/><path class="cls-3" d="M499.89,530.28a7.45,7.45,0,0,1,0-7.14c3.54-1.31,6.39-.8,6.5,3.54.13,4.7-3.07,4.57-6.47,3.6"/><path class="cls-3" d="M1241.1,888.22c-5.39.65-9.63,1.22-15.71-.8,6.34-3.45,10.52-2.9,15.71.8"/><path class="cls-3" d="M1534.17,769l10.2-3.66c-2.4,5.33-6.46,4.26-10.48,3.39Z"/><path class="cls-3" d="M1336.47,978.45c-2.07-2.74-1.46-5.69-1.21-10.36,2.19,4.59,2.25,7.56,1,10.59Z"/><path class="cls-3" d="M1331,959.6c-3.34-2.46-2.54-4.64-1.74-6.94,1.23,1.82,3.17,3.29,1.74,6.94"/><path class="cls-3" d="M1374.06,795.46c.12-3,.09-6-2.34-8.35l-.31.3c2.22-.61,4.25-.32,4.48,2.31.17,1.95,1.75,4.88-2.11,5.44Z"/><path class="cls-3" d="M1445.61,49.59c-.35,1-1,1.82-2.3,1.52-1-.25-2.14-.65-1.74-2.09a1.86,1.86,0,0,1,2.34-1.55c1,.25,2.22.51,1.7,2.12"/><path class="cls-3" d="M1536.46,804.54c4.12.19,1.73,4,3.19,5.69l-.65.46.4-.69c-4.46-.34-1.65-3.89-2.57-5.79Z"/><path class="cls-3" d="M1445,29.68c.28.8,0,1.49-.77,1.58a5.14,5.14,0,0,1-1.86-.51,8.83,8.83,0,0,1,1.11-1.61c.69-.63,1.27-.37,1.52.54"/><path class="cls-3" d="M1243.24,392.21a10,10,0,0,1,0,2.68c-.23.79-1.08.7-1.26-.22a9.35,9.35,0,0,1,.27-2.7l1,.24"/><path class="cls-3" d="M1332.71,964.4c-.87.35-1.48.08-1.61-.85,0-.22.56-.76.7-.71a11.77,11.77,0,0,1,1.79.94l-.88.62"/><path class="cls-3" d="M1370.08,800.31c-.91,1.17-2,1.86-3.73,1.12,1-2.41,2.55-1.42,4-.82Z"/><path class="cls-3" d="M1369.46,572.36c-1.48-.73-2.41-1.6-.76-3.08a2.49,2.49,0,0,1,.53,2.88Z"/><path class="cls-3" d="M1264.45,280.07a1.61,1.61,0,0,1,.22,2.54.7.7,0,0,1-.67,0,1.58,1.58,0,0,1,.45-2.5"/></g><g class="cls-2"><path class="cls-3" d="M1539.64,810.23c-.79,1.21-1.05-.72-.35.54,0-.25.07-.51.1-.77Z"/><path class="cls-4" d="M217.46,5.62l-6,6.77c4.33,1.74,2,12.27,11.95,8.18v11c7.55,9.84,14.19,17.8,19.92,26.36,1.81,2.71,1.18,7,1.87,12.15l6.29,1.75q10.11,61,20.26,122.28h9.46c5.32-10.15,10.7-20,15.61-30,2.12-4.34,4.44-7.38,9.76-6.29l-.38-.39,4.49,4.69c-3.72,8-7.5,16.24-12.18,26.37,9.39-1.11,16.71-1.92,24-2.86,10.57-1.36,21.1-3.28,31.71-4.09S365,181.15,371.12,171c.95,3.33,2.3,5.4,1.84,6.93-1.28,4.34-2.78,9-8.38,9.68-6.73.86-13.48,1.56-20.22,2.37-11.38,1.37-22.74,3-34.16,4-3.77.35-7.68-.73-12.34-1.25l-4.09,5.82c6.61,8.87,19.12,10.61,26.41,18.7l-2,3.56c-4.53-1.77-10.95-2.27-13.16-5.59-3.56-5.3-9.18-4.23-13.52-8.38l-9.65,29.58c1.74,7.77,3.47,14.85,4.77,22,.17.91-1.9,2.22-3.88,4.39-1.92-5.31-3.37-9.36-5.06-14-4,6.78-4,6.78-9.11,3.33l-6.39,11.26c-4.25-9.53-.83-18.39,5.66-21.84,3.55-12.4,6.83-23.86,10.32-36.07H232.68c2.69-6.95,7.29-8.42,25.59-9.37,2-13.2-1.48-26.26-5.07-38.44-5.93-20.08-3.24-42-13.21-62.66-5.23,9.56-8.44,18.38-14.17,25-5.41,6.31-5.44,16.89-17,21.24,1.11-11.31,7.7-17.2,12.38-24.38s7.2-15.84,9.44-25.28c-1.79,1.44-4.22,2.51-5.28,4.36-6.46,11.3-12.53,22.82-18.93,34.14-.88,1.55-2.9,2.46-4.39,3.67l-2.59-2.1c3.06-7,5.86-14,9.26-20.83,2.63-5.25,6.17-10,9-15.2,2.54-4.61,4-9,2.54-15-1.3-5.15-.69-12.14,2-16.6,4.39-7.36,1.64-14,1.69-22.4-5.72,4-10.7,7.59-16.92,3.33-.32-8.06,7.6-2.5,9.89-5.74q-7.33-16.93-14.62-33.75Z"/><path class="cls-4" d="M456.29,5.62c-1.24,1.4-2.67,4.16-3.69,4-17.77-2.5-27.53,10.53-39,20-3.67,3-6.37,7.2-10.59,12.09,9.1,1.12,16.7,1.95,24.26,3,2.72.39,5.69.89,7.95,2.29,3.47,2.16,6.16,3.7,8.83-.93.52-.9,2.54-1.28,3.88-1.29,8.9-.11,17.8-.06,26.52-.06L486.34,34c.24-2.21.67-6,1.09-9.9,6.81,1,8.25,4.63,7.26,15.26-3.34,3.55-5.48,6.47-8.24,8.61a151.61,151.61,0,0,1-14.25,9.52c-.84.5-3.54-.19-3.83-.94C463.44,44,460.11,54,455.79,57.77l-6.44-3.29c-8.94,6.18-17.83-.84-26.59.64-9,1.53-18.54.34-29.35.34-8.78,12.83-22,25.5-19.89,44.66-8.35,2.22-4.7-5.07-8.63-7.75-6.77,8.47-13.46,17-20.37,25.39-1.62,2-3.84,4.22-6.08,4.59-1.35.22-3.75-2.68-4.8-4.64-1.55-2.91-1.16-5.13,1.71-8.25,8.09-8.81,15.18-18.57,22.39-28.17,1.14-1.52.85-4.11,1.32-6.74-11.36-7-20.35-16.22-25.59-28.94,13.17,5.44,19.29,20.21,33.89,24.79,16.57-22.58,33-45.69,54.19-64.78Z"/><path class="cls-4" d="M545.3,5.62c-.89,6.39-7.42,5.59-11.13,8.25-8.77,6.27-9.5,7.1-4,16.52,2.17,3.68,6.88,6.84.94,13.4C527.54,38,524.38,32.89,521,27.48h-9.5c-2.9,5-4.7,11.07-13,10.18V24.79L518.46,11.5c-.46-1.94-.92-3.91-1.38-5.88Z"/><path class="cls-4" d="M1498.43,5.62l-4,16.11,8.21,4.11-40.95,26.24c-1-2.12-2.24-4-1.94-4.32,4.7-4.64,8.92-11.27,14.61-13,7.89-2.43,10.8-7.56,13.23-13.84,1.9-4.92,3-10.17,4.38-15.27Z"/><path class="cls-4" d="M1339.07,179.35v12.32c2.44-.45,5.59-1.9,8.23-1.26,2.39.58,4.23,3.45,6.31,5.3l-1.11,2.54-16.94.85c4.48,3.24,12.47-.69,11.15,7.66,12-1.81,13.31-12.49,16.77-20.35,1.19-2.7-4-8.2-6.26-12.42l-2.74.4c2-5.57,4-11.13,6.55-18.47,5,3.09,8.8,6,13,7.88,6,2.62,12.37,7.86,18.77.45,14-.73,27.92-1.61,41.89-2,2.22-.07,4.51,1.89,6.86,3v15.6h-25.52c-4.55,5.31.55,12.57-7.7,17.35-.67-6.44-1.17-11.15-1.65-15.74-4.11,1.13-8.61,1.56-12.19,3.6s-7.62,5.16-8.66,8.64c-3.56,11.88-13.23,16.65-23.12,20.2-4.73,1.69-11-.84-17.15-1.52-.66-1.52-1.45-3.34-2.8-6.43-5.74,4.4-11,8.93-16.75,12.71-5.11,3.35-9.51,8.86-17.23,6-2.11-.77-5.89.59-7.85,2.23-8.39,7-18.35,7.09-28.38,7.55-3.91.17-7.79,1.42-11.68,1.41a63.41,63.41,0,0,1-18.8-2.58c-1.88,1.12-3.74,3.16-5.65,3.21-6.59.15-11,3.93-15.61,7.83a65.05,65.05,0,0,1-8.52,6c-3.14,1.89-7.65,2.08-8,7.21,0,.81-1.28,1.94-2.19,2.23-12.44,4-19.36,15.83-30.81,21.73-5,2.58-7.14,11.85-9.33,18.49-3.09,9.34-4.16,10.59-14.92,9.5.46-14,5.11-27,15.13-36.1,11.58-10.54,25.38-18.63,38.15-27.87,5.94-4.3,11.43-9.33,17.7-13.06,4.78-2.84,10.38-4.44,15.8-6,1.42-.4,3.51,1.53,5.54,2.52l2.21-7.09-64.53-5.65-4.71,10-2.12-.27-3.66-10.59c-12.82,1.7-25.49-5.92-38.75-.38a5.06,5.06,0,0,1-3.22.06c-15-4.77-29.87.42-44.82.24-21.9-.26-43.84,1.16-65.75,2.06-12.18.5-24.35,1.29-36.52,2.14-11.37.8-22.74,1.87-34.26,2.83-.55,4.13-1.06,7.93-1.6,12-9.37-.46-3.36-8.13-7.41-12.22a62.85,62.85,0,0,0-8-.36c-9.28.55-18.54,1.53-27.83,2a26.75,26.75,0,0,0-16.11,6.08c-13,10-26.54,20.35-44.91,14.46.59-9.79,2.07-10.68,11.46-12,5.37-.76,11.26-2.7,15.43-6,10.73-8.44,21.72-14,36.05-13.63,10.94.31,21.95-2.2,32.93-3.45,1.43-.17,2.84-.49,4.27-.55,19.41-.75,38.81-1.58,58.22-2.18,26.64-.82,53.28-1.46,79.92-2.2,25.55-.71,51.11-2.09,76.65-1.92,15.67.11,31.32,2.66,47,4,10.71.9,21.47,1.32,32.16,2.36,9.57.93,19,2.89,28.62,3.56,20.58,1.45,40.91,1.64,57.91-13.37,6.74-6,15.44-10,17.27-20.1,0-.19,1.33-.15,3.79-.39"/><path class="cls-4" d="M923,539.62c14.48.41,28.3,6.94,29.55,15.12-4.39-1.36-8.31-2.54-12.19-3.8-3.67-1.2-7.3-2.49-12-4.09-10.13,24.21-19.95,47.66-29.09,69.49,15.92,14.16,30.69,27.24,41.89,43.77,16.44.21,31.62-7.47,48-8.35l14-21c4.81,10.62-7.25,13.36-4.63,22.73l78.52,6.54c-9.7-11.77-25.51-13.72-29.36-28.58,14,6,24.67,16.92,39.33,24.94-.24-2.92.22-5.59-.74-7.59-8.94-18.77-8.1-37.92-3.45-57.56,2.53-10.67,3.74-21.65,5.46-31.94-6.56-7.84-17.78-1.76-24.54-7.07.37-1.41.73-2.82,1.1-4.24l24.73,1.51c4.88-21.56,9.86-43.58,14.83-65.58,9.15-.09,9.48.37,8.12,8-2.9,16.46-5.79,32.92-8.38,49.43-4.08,26-8.17,52-11.59,78.06-.66,5,1.8,10.35,2.78,15.55,1.65,8.69,3.28,17.39,4.8,25.5,10.87,4.43,21.52,9.07,32.41,13,3.21,1.17,7.14.44,10.74.45,4.7,0,7.54,1.8,7.24,7.93-3.2,0-6.25.2-9.27-.06-2.06-.18-4.29-1.82-6.07-1.36-15,3.9-28.21-4.91-42.53-5.58-2.48-.11-4.94-.84-7.43-.92-7.5-.23-14.88.43-22.06-3.59-3.36-1.88-8.44-.68-13.23-.89l-4,18.76h-9.77l6.35-18.33c-5.92-.89-11.24-1.83-16.59-2.47-12.39-1.48-24.77-3.61-37.2-4-10.8-.3-21.45,2.53-31.71,6.16-2.34.83-4.58,1.93-7.62,3.23,1.54,9.34-6.14,11.85-12.68,14.89l7.6,21.58,44.55-18.08,1.44,6.78-49.06,20.24c-3.36-11.9-12.66-20.55-11.4-34.69l12.19-4.33c1.7-6-2.53-5.79-6.08-5.13-11.53,2.15-23,4.66-34.48,7-9.36,1.94-18.9,3.25-28,6.08-6,1.86-11.52,5.61-16.93,9-12.65,8-23.68,18.31-37.79,24.42-9.36,4.06-17.42,11.09-26.05,16.82-4.45,3-8.91,5.89-13.27,9-6.57,4.64-12.92,9.64-19.68,14C757.52,762,754.22,762,750,763c-3.59,6.26-17,14.22-24.58,12.54-6.2-1.37-12.09-4.11-19.16-6.61-1.1,4.43-1.69,7.87-2.83,11.11a100.27,100.27,0,0,1-4.3,9.27L709.52,794c-7.54,3.87-28.29,0-44.31-7.11,2.48-4.35,2.48-4.35,27.65,1,6.39-10.15,5.92-22.46,10.72-33.25s4-23.43,12.53-33c5.36,13.66-8.1,24.53-5.62,38,7.41-1.54,13.86-.91,16.92,8.68,3.6-4.56,6.47-8.19,9.74-12.31l7,5.43c.65-12.14,11.44-13.53,18.46-17.18,5.62-2.93,10.32-7,15.71-10,9.44-5.37,19-11,27.17-18,10.23-8.8,22.8-13.58,33.24-22.25,13.53-11.23,29.4-19.36,47.53-22.21,15-2.36,29.9-6.06,46.22-9.45-2.88-10.4-11.33-15.38-17.43-22.16-6.36-7.06-12.25-14.52-22.35-17.66.39-10.8,4.78-20.11,8.62-29.55q11-27,22.09-53.85Z"/><path class="cls-4" d="M796.35,233.83c2.1,9.23-4.15,12.63-9.43,18L784,246.68c-41.91,13.13-79.18,33.78-108.4,66,2.11,13.66,18,15.57,22,28.06-2.07.39-4,1.3-4.59.77-5.24-4.9-10.68-9.69-15.22-15.21-6.27-7.63-12.74-8.27-19.22-.7-10.5,12.26-21.1,24.45-31.11,37.1-7.57,9.57-14.48,19.7-21.35,29.8C596,407.36,586,422.32,576.3,437.51c-7.06,11.09-14.24,22.22-19.94,34-7,14.5-10.4,30.25-11,46.39-.41,11.14-.08,22.3-.08,32.67,4.13,3.87,11.13-1.27,13.38,6.76l-12,2.81q5.1,24,10.21,48l10.93-1.91c6.48-7.35,1.94-15.61,1.18-23.45-.63-6.66-2.74-13.19-4.29-19.75-2.85-12.07-2.49-12.29,10.23-12.75a177.62,177.62,0,0,0,23.37-2.4c4.07-.69,7.78-3.24,11.81-4.42,3.37-1,7-1.2,11.64-1.94-5.61,10.72-15.74,13.49-51.8,15.57,2.09,9.22,4.13,18.3,6.22,27.36.47,2.07,1.4,4.07,1.59,6.16,1.23,13.47-.64,16.5-13.39,22.62a52.74,52.74,0,0,0-4.49,2.87c3.81,11.73,7.39,23.51,11.55,35.08,1,2.92,3.91,5.19,6,7.71.64.77,2.21,1.82,2.11,2-3.06,5.14,2.83,8.85,2.2,14.83l-14.13-2.7c-1.22-6.18-2.5-12.71-3.93-19.93-9.65-2.15-8.62-11.28-10.23-19.07H543.8c-.36-.69-.73-1.37-1.09-2l6.51-5.48c-5.24-21.78-10.44-43.36-15.84-65.76l-23.32,3c-2.3,9.14,6.5,17.94,3.77,27.23l-4.32.62-8.37-30.37c10-6.79,20.92-6,32.52-7.46.27-3.93.62-7.72.79-11.53.76-17.22.64-34.53,2.48-51.63,1.27-11.86,6.86-22.83,12.87-33.2,5.42-9.35,11-18.62,17.06-27.58,12.24-18.17,24.6-36.27,37.32-54.09,11.25-15.77,22.47-31.64,34.8-46.55,12.89-15.58,26.37-30.9,45.08-40.15a7.53,7.53,0,0,0,2.42-2.15c8.68-11.35,21.43-17.84,32.85-25.36,8.81-5.79,18.75-11.32,30.47-12.44,6.3-.6,12-6.24,18.24-8.83,8.73-3.6,17.56-7.42,28.31-6.49"/><path class="cls-4" d="M102.8,529.22c-5.54-10.1-12-21.43-18-33-3.8-7.25-6.74-15-10.58-22.2-3.1-5.84-7-11.27-10.48-16.88l-2.87.8c-.86,25.92-1.72,51.85-2.53,76.65,6.58,5.93,15.45-1.49,21.46,8L59.46,544.3c-6.47,5.15,1.43,14.64-8.06,19.94-.41-5-1.06-8.7-.95-12.39.56-18.3,1.2-36.59,2.06-54.88.54-11.45,1.58-22.88,2.27-34.32A26.09,26.09,0,0,0,54,457.4l-14.33-1.19c3.18-7.4,9.48-7.74,19.37-2.2-.83-2.75-1.12-5.85-2.61-8.18-4.59-7.2-9.8-14-14.44-21.17-1.69-2.6-2.48-5.79-3.9-9.28l-9.76,8c-3.59-8.43,1.9-9,5.7-10.55-2.68-7.88-5.37-15.74-8.18-24,2.32-.6,3.92-1.34,4.18-1q7,8.73,13.7,17.71c5.45,7.26,10.88,14.53,16.19,21.89,3.8,5.29,3.88,12.57,9.58,17,2.78,2.18,4.54,5.67,7.06,9,14.57-14.27,31.2-20,49.93-20.43,2.48,9.43,1.56,11.56-5.73,12.84-6.32,1.1-12.71,1.76-18.3,3.91L82.41,463.35l41,83.94,12.32-4.3c-3.38,8.18-5.73,13.86-8.36,20.24l7.82,6.17c-6.65,12.06,2.22,19.72,8.37,27.44,6.52,8.2,14.71,15.08,22.11,22.59,3.18,3.24,7.86,5.85,5.13,12.64l-8.91.62c-3.25-3.5-5.63-6.35-8.32-8.87-4.06-3.81-9.08-6.84-12.34-11.21-4.2-5.62-10.37-8.37-15.15-12.69-11.9-10.75-27.1-10.34-40.69-15.19-6.3-2.25-11.94-6.35-19-10.22l-4.23,6.14c-13.27-3-25.39-5.73-37.47-8.56-.2,0-.11-1.33-.18-2.35l12.75-6.51,5.65,6c5.36-1.29,10.17-3.07,15.06-3.32,2.1-.11,4.37,3,6.45,4.52,1.46-.62,5.06-2.57,5.31-2.21,4.14,6,9.58,4.84,15.76,4.53,5.79-.3,12.57,1,17.39,4,5.87,3.69,10.67,2.42,16.85.51-4.54-12.32-9.07-24.59-13.85-37.55l-24.47,1.92c-.26-1.06-.52-2.13-.79-3.19,4.7-8.19,16.86,1.41,22.13-9.2"/><path class="cls-4" d="M199.71,466c6.73.49,14.52-3.21,19.11,5.59.85,1.63,4.41,2.47,6.76,2.56,4,.14,5.93,1.08,7.92,5.19,1.71,3.53,6.81,7.46,10.55,7.6,13.22.52,20.93,10.52,32.81,16.1-.91-10.61-1.81-21.1-2.69-31.58-.15-1.8-.22-3.6-.24-5.41a383.2,383.2,0,0,0-11.05-87.91c-2.45-9.87-1.14-11.65,10.95-14.15,2.2,16.95,4.23,33.83,6.65,50.65,1.56,10.85,4.08,21.57,5.48,32.44.81,6.33.29,12.84.33,19.27,0,3.05-.13,6.1,0,9.14.08,2.5.74,5,.57,7.48-.52,7.48-4,16-1.46,22.21,6.22,15.15,2.23,30.47,3.92,45.57.37,3.3.64,6.87-.17,10-3.58,13.89,1.22,27.56.58,41.32A84.38,84.38,0,0,1,287,620.36c-.5,1.85-4.36,2.79-6.68,4.15L277.51,623q1.35-26.21,2.68-52.41a51.4,51.4,0,0,0,.2-5.4c-.65-12.26-1.58-24.51-2-36.77-.16-4.85-.41-8.36-6.6-8.86-2.09-.17-4.12-3.13-5.87-5.09-2.61-2.9-4.42-6.85-7.52-8.91-6.78-4.52-14.52-7.62-21.19-12.28-5.28-3.69-9.55-8.84-14.47-13.54a19.51,19.51,0,0,1-22.66-14.09Z"/><path class="cls-4" d="M105.41,294.91c2.54-1.21,5.25-1.88,5.26-2.59.23-20.12.18-40.25.18-60.64h-8.66c1.06,20.9,2.1,41.21,3.22,63.23m-8.55,4.93c0-24.89,0-47.49.09-70.09,0-1.25,1.32-2.48,2.33-4.27l11.16-1c.18-2.42.36-5,.59-8.08L94,215.34c1-9.27,7.7-4.72,11.51-5.35,4.22-.7,8.74.33,14,.65-5.49,26.4,1,52.66.32,79.85,3,1,5.25,6.91,9.8.66.83-1.13,3.95-.73,6-.8,5.47-.19,11,.35,16.34-.67,2.09-.41,3.51-4.2,6.06-7.51l6.58,9.63L175.19,284c.4,5.54.67,9.37,1,13.29-7.16,3.08-15.56-1.92-20.75,5.31,0,.06-3.42-2.21-5.19-3.46-1.49-1-2.9-2.19-5.18-3.91L142.42,305c-5.16-2.22-9.26.18-14,1.85-7.58,2.7-16.09,2.64-23.9,4.85-14.77,4.17-28.77,2.06-44.54-5.11,3.06,8.89,5.41,15.73,7.82,22.75-4.8,2.89-7.16.82-8.58-3.05-1.09-3-1.73-6.12-2.75-9.13-3.27-9.71-9.67-17.63-19.14-20.35-7.23-2.07-6.51-8.55-10.45-12.19-2.4-2.23,2.07-7.23,4.9-5.16,7.15,5.23,16.73,3.64,23.35,8.57,6,4.44,12.37,6.2,19.17,7.64s13.61,2.56,22.53,4.22"/><path class="cls-4" d="M1444.94,665.08a25,25,0,0,1,3.25,2.25c10.07,9.72,21.62,11.51,33.69,5.23,4.77-2.49,6-6.59,5.93-11.6-.11-9.73-.21-19.47.1-29.19.41-12.51,1.24-25,1.88-37.51,0-.36,0-.72,0-1.08.55-4.41,3.38-6.59,7.47-5.92,6.06,1,13.65-3.33,18.34,2.89l-.45,3.05h-18.08c-1.08,13.11-2.06,25-3.14,38.18l40.59-10.24,2.42-8.78,15.1,12.21-57.62,13v19.86l6.39,3.72c14.79-20.27,36.28-26.51,59.76-31.17v15.42c-3.66.75-7.76,2.42-11.78,2.25-17.1-.71-28.07,9.63-39.28,20.26-3.55,3.37-9.94,4-12.86,7.68-3.44,4.28-7.58,6.44-11.63,9.46-9.7,7.24-24.6,8.79-28.17,23.39-.23.95-1.05,1.77-2.32,3.8l-8.26-9.94c3.08-7.52,2.65-14.21-3-21.3-2.63-3.28-1-10-1.25-15.15l2.88-.8"/><path class="cls-4" d="M1318.16,593.52c10.14,3.07,17,10.78,25.13,16.92,13.35,10.1,28.17,17.51,45.53,17.9,3.54.08,6.2-.41,9.28-3.49,5.07-5.08,8.07-3.78,13.65,3.94l-9.06,3.22c.07.62.14,1.24.2,1.85L1414,636.1c-4.94,13.4-11.25,26.7-6,41.8l13.74.93v23.3l10.23,12-1.21,2.67-83.35,7.52c-.43-.87-.85-1.74-1.28-2.6,1.49-2,3.85-3.82,4.24-6,.44-2.44-.91-5.2-1.5-7.88,5.92-3,6.18,1.5,6.68,4.81l53-10.67c1.49-5.65.82-9-3.5-12.75-9.67-8.44-10.12-20-7.7-31.76,1.39-6.69,2.56-13.2-.36-19.06-32.2,1.5-55.66-14-76.9-34.84-3.21-3.15-5.55-5.31-1.91-10.07"/><path class="cls-4" d="M695.78,751.46c-1.94,3.9-3.72,7.5-5.7,11.49l-27.6-6.69-11.31,27.8c-3-.73-7.68-1.66-12.23-3.07a157.31,157.31,0,0,1-14.78-5.42c-3.14-1.32-8.06-1.63-6.22-8.68l30.55,8.79c2-7.16,4-14.44,6.34-22.7l-38.48-10.51c-2,7.6-3.74,14.06-5.52,20.74l4.29,6.23c-16.62,4.93-38.83-4.66-45.38-18.76-1.57-3.36-3.85-6.39-5.77-9.59-2.11-3.54-4.17-7.1-6.26-10.65.62-.71,1.24-1.41,1.85-2.12,1.73.83,3.93,1.24,5.11,2.56,5.57,6.24,9.1,13.91,14.27,20.59,6.68,8.65,14.8,9.81,24.58,12,2.6-8.49,5-16.19,7.13-23.3-5.58-6.46-10.81-12.19-15.66-18.23s-4.7-7.09.17-15.38c5.9.94,8.78,5.37,11.32,10.13,4.42,8.31,11.4,13.06,20.35,15.58,17.39,4.9,34.69,10.14,52.06,15.12,5.1,1.46,10.32,2.53,16.89,4.11"/><path class="cls-4" d="M651.24,523.57c6.74-9,17.58-13.16,26.75-21l-11.38-12.45c-14.49,7.92-26.78,19-44,19.37-4.22,9.23.73,17.77,2.92,26.5l-2,1.58c-2.1-1.63-5.34-2.87-6-5a62,62,0,0,1-2.59-14.63c-.88-11-1-22.12-2.21-33.09-.75-6.48-4.78-10.32-11.52-13.17-10.65-4.48-20.31-11.3-30.38-17.14l1-3.49c2.73.28,5.92-.25,8.1,1,10.26,5.81,21,11.18,30,18.56,5.68,4.63,9.25,3.18,14,.47,5.15-2.94,10.43-4.63,18-1.3-6.07,7.28-16.79,4.08-21.5,11.55.47,6.41,1,13.4,1.49,20.31,12.31,1.27,35.34-10.64,41.37-22.09L643,472.41c.73-1.44,1.18-3.79,2.22-4.09,6.5-1.9,15.62,2.59,19.61,8.12,5.67,7.84,12,15.19,18.11,22.82,9.53-2.63,12.32-5.87,12.14-15.81-.23-12.31,1-24.16,6.36-35.54,1.88-4,1.89-9,2.32-13.51.35-3.8.07-7.67.07-14,3.49,2.75,6.06,3.83,6.08,4.94.09,6.06.48,12.36-.95,18.14-3.78,15.23-7.47,30.36-7.51,46.2,0,2.82-1.53,6.8-3.7,8.26-8.29,5.56-17.29,10.06-25.69,15.48-4.74,3.06-8.74,7.25-13.27,10.68-1.5,1.13-3.6,1.46-5.42,2.16l-2.11-2.73"/><path class="cls-4" d="M350.16,832.36c9.91-6.07,15.19-6.67,19.45-2.34l-15,7.35c7.39,17.92,16.52,34.89,19.48,54.18a32.5,32.5,0,0,0,5.29,12.77c4.13,6.11,1.94,11.17-1.1,17.52-6.52-4.08-8.84-10.28-11.06-16.29C363,893.93,359.51,882,355,870.5a380.32,380.32,0,0,0-26.82-54.35c-1.1-1.85-2.67-3.77-2.83-5.74-.18-2.43.44-6.81,1.51-7.07,2.65-.65,6.78-.44,8.46,1.26,3.19,3.2,5.31,7.57,7.44,11.68,2.6,5,4.76,10.21,7.45,16.08"/><path class="cls-4" d="M1157,680.35c7.49-3.72,13.37-4.26,20.62-2.64,8.6,1.93,18,.74,27,.47,5.79-.18,10.81.43,12.37,5.32,19.29,5.27,37.9,8.31,54.45,17.57,2.26,1.26,3.49,2.33,6,1.4.84-.32,2.07.17,3.06.49,5.72,1.86,10.3,7.13,9.15,10.46-1.41,4.07-5.88,4.51-13.1,1.64-16.27-6.47-33.17-10.92-49.88-16-12.39-3.76-25.31-4.38-37.58-9-7.9-3-17.81-.55-27.26-.55l-4.78-9.18"/><path class="cls-4" d="M210,299.14c-1,1.89-2.12,3.9-4,7.29-2.23-3.18-3.67-5.22-5.48-7.81h-13c-3.32-4.94-6.19-9.23-9.8-14.62,10.75.56,20,1.2,29.18,1.43,3.14.07,6.3-1,9.46-1.36q22.86-2.56,45.74-5c1.36-.14,2.79.41,5.65.88L264,290H249.38l-.18,1.21,14.95,4.21c.33,7.43-1.94,9.62-14.75,13.79-.67-1.87-1.33-3.77-2-5.65s-1.55-4-2.63-6.74L210,299.14"/><path class="cls-4" d="M456.18,986.61c5.29-2.47,10.48-5.2,15.9-7.35,7.11-2.83,7.91-11.3,15.14-15.13l-16.93-18.77c6.56-4.17,9.57-.09,11.08,2.81,4,7.71,15.33,8.29,16.87,18,10.37-1.05,12.32,12.69,22.8,12.14-.78,8.44,3.89,17.72-5.07,23.31l-3.27-.59c.57-5.75,1.15-11.51,1.79-17.83-.29-.18-1.07-.77-1.92-1.22-10.48-5.57-10.36-5.54-13,6.82-.84,3.89-2.53,7.6-4.08,12.14H478.24l7.81-5.09c-1.07-2.24-2.12-4.89-3.54-7.32-3.28-5.61-6-5.85-11.61-1.66a115.06,115.06,0,0,1-9.79,6.4c-1.45.86-3.19,1.24-7,2.65l2.41-9.71Z"/><path class="cls-4" d="M1550.51,125.73,1537.23,97.5l-25.14,9.42c.23,2.36.54,5.54.9,9.25-9.57-4.11-11-7.29-8.78-19.59l6.33,3.07,38.59-12.17,1.8,3.09-6,5.93c6.4,17.54,18.12,34.78,14.36,56.45l-3.62-5.66c-1.57,3-3,5.85-4.49,8.72,2.14,4.1,11.7-2.35,9.66,7.35h-18.53c-1.59-12.28,9.87-18,12.61-29.4l-25.3,1.73c-.26-1-.53-2.07-.79-3.11,5.52-5.81,14.25-3.45,21.7-6.85"/><path class="cls-4" d="M1509.35,117.47c9,3.07,5.15,8.87,7.25,13.3l10.76,2c-1.65,2.15-2.77,4.78-3.8,4.75-7.38-.23-8,4.18-7.82,9.89.47,12.79-1.89,25.87,5.06,38.39l-6.51,3.08,2,4.6,5.6-3.78,8.73,16.18c-7.33,10.81-7.84,10.45-18.12,1.58-5-4.27-11.66-6.53-17.6-9.72V179.33l10.15,8.23c8-4,8.09-4.37,4.22-12.12-.78-1.56-2.06-3.29-1.91-4.82,1-10.25,2.4-20.46,3.4-30.71.29-3-.3-6.18-.5-9.28-.24-3.77-.5-7.55-.88-13.16"/><path class="cls-4" d="M1562,401.55c-9.72,8-1.87,19.62-6.4,29.14-8.44-1.32-4.32-7.75-4.86-11.74-.67-4.91-.16-10-.16-15.18l-37.7-8c-4.1,12.77-7.93,24.78-11.92,36.74-.1.32-2,0-4.29,0,6.3-31.5,12.54-62.75,18.86-94.42,5.55-1.09,5,3.43,4.51,6.67-1.55,11.21-3.58,22.36-5.34,33.55-.53,3.39-.75,6.83-1.17,10.69l47.94,10c.18.83.35,1.66.53,2.5"/><path class="cls-4" d="M292,361.65c-.84-1.5-2.68-3.28-2.36-4.47,1.45-5.34,3.95-10.42,5.27-15.78,2.37-9.64,5-19.23,1.28-29.36-3.6-9.82-3.88-20.5-11.65-29.25-3.34-3.76-1.62-12-2.16-17.92,7.11-1.7,6.46,2.17,6.72,5.36.93,11.36,2.79,12.83,14.29,13.23,4.92.16,9.78,1.58,14.7,2.1,8.15.85,16.32,1.58,24.5,2.09,5.4.33,10.85,0,16.25.38,1.48.11,2.83,1.92,6,4.23-23.51,5.16-44.37-.17-66.69-3.42,6.18,25.5,11.07,49.57-6.15,72.81"/><path class="cls-4" d="M962,551a233.25,233.25,0,0,1,36.65,36.68c-14.88-.12-18.74-15.89-31.12-21.25l-13.31,16.15-5.59-4.39,15.44-18-8.63-7.59c1.8-6,3.41-11.37,5.35-17.87,23.48,3.37,46.53,6.65,69.54,10.13.56.09.79,2.36,1.84,5.8-11.1-1-20.85-2.28-30.64-2.79a81.11,81.11,0,0,1-27.18-5.85c-7.05-2.89-10.39,1.9-12.35,9"/><path class="cls-4" d="M67.52,38c14.3-1.33,29.12-2.74,44-4,1.7-.15,3.45.35,5.8.62-.66,10.64-1.29,20.79-1.92,31H66.18c-4.6,1.23-2.36,8.63-4.8,13.39-3.13,6.15-5.2,7.36-13.87,4.44,7-5.83,10.14-13.23,12.28-21.48.48-1.84,5.95-3.4,9.08-3.34,13.11.26,26.2,1.19,39.53,1.88V39.79L72.91,44.08c-.83,4.74-1.37,7.82-1.93,11-7.49-2.94-8.5-7.68-3.46-17"/><path class="cls-4" d="M80.07,664.47c2.93-10,16.21-1.24,17.23-11.45-10.13-15.32-11.31-19.88-6-24.5l11.55,21.34L136.6,632.1c3.45,5.92,6.19,10.62,8.91,15.32-4.53,2-4.53,2-11.81-5.88-8.47,6.56-21.3,6.79-27.55,17.23,6.83,1.38,12.39,2.21,17.72,3.81,1.22.36,1.64,3.38,3.18,6.91l-11.29-2.15c-8.77,3.82,0,11.77-3.84,17-6.23.24-6.61-4.56-7.23-8.5-2-12.71-1.86-12.61-14-11-3.06.42-6.26-.2-10.65-.41"/><path class="cls-4" d="M456.56,986.23c-7.07,1.95-6.78-8.42-13.06-7.79-6.63-11.08-15.22-7.4-23.87-3.16a10.37,10.37,0,0,0-1.25.76c.17,3,.32,5.74.4,7.23l11.8,17.41h-15c-1.56-11-11.3-18.89-13-30.61-.74-5.06-.11-8.34,6-10,1.65,3.44,3.25,6.76,5.21,10.83l21-8.1,12,8.91c6.12-4.55,10.25-13,19.31-10.83.56.87,1.11,1.74,1.66,2.61a71.1,71.1,0,0,1-6.61,5.07c-9.13,5.47-9.13,5.4-5,14.8.4.91.08,2.14.09,3.22l.38-.38"/><path class="cls-4" d="M200.11,465.64c-2.59-.94-5.71-1.26-7.66-2.93-5.29-4.53-10-9.77-15.15-14.42a10.35,10.35,0,0,0-5.73-2.14c-11-.94-22.1-1.63-33.16-2.45a8,8,0,0,1-2-.67c-1.9-9.76.49-12,9.46-10.9a125.5,125.5,0,0,0,24.72,1c6.39-.46,11.37,1.8,15.63,5.45,5,4.32,9.29,9.56,13.71,14.56,3.76,4.26,2.13,8.64-.25,12.9Z"/><path class="cls-4" d="M1007.78,998.36c6.34-2.53,12.58-6.64,19.06-7.07,4.79-.32,8-1.93,11.84-3.87a38.35,38.35,0,0,1,11.87-3.67c11.28-1.57,22.6-3.27,34-3.63,5.57-.17,11.24,2.52,16.87,3.91v3.1c-4.54,1.18-9.11,3.48-13.6,3.35-19.92-.59-38.7,5.14-57.81,9.23-6.89,1.48-14.06,1.63-21.11,2.38-.35-1.24-.71-2.49-1.07-3.73"/><path class="cls-4" d="M1113.48,419l-5-6c9.71,0,7.5-7.23,9.39-13,7.05,4.8,10.37,10.23,8.73,18.73l-5.66,2.48c5.4,7.8,2.44,16.26,1.54,24.43-1.09,9.82-3.2,19.53-5,30.07h-9.14c-2.67-19.38,3-37.57,5.18-56.67"/><path class="cls-4" d="M263.55,667.15c.47,5.44.63,11.12,1.6,16.65.42,2.43,2.72,4.48,3.69,6.89.43,1.06-.07,3.62-.55,3.73-1.43.32-3.87.34-4.49-.53a122.82,122.82,0,0,1-7.21-12c-3.66-6.7-9.79-6.9-16.29-6.58s-12-4.42-13.42-11.88c2.81.35,5.36,1,7.89.93,9-.31,16.38-5.44,23.7-9.63,4.51-2.59,12.32-.76,13.43-8.63,3,.49,7.45-2.31,8.51,4.37l-6.29,1.9-10.57,14.77"/><path class="cls-4" d="M923.37,539.23c-13.8-1.39-27.6-2.81-41.4-4.18q-11.19-1.11-22.39-2.09c-17.06-1.53-34.13-3-51.19-4.56a41.06,41.06,0,0,1-4.83-1.1c.86-1.89,1.17-3.74,2.26-4.63.91-.75,2.76-.6,4.16-.47,13.47,1.21,26.95,2.42,40.41,3.79,15.25,1.55,30.48,3.27,45.72,4.91l26.26,2.8c.2,1.89.41,3.9.62,5.92Z"/><path class="cls-4" d="M1334.32,768.77c-1.29-9.58-2.16-16-3.07-22.76,9.75-.52,4.41,7.3,9.21,11.08l61.25-15.84c3-6-5.63-11.79,2.71-15.34,2.9,4.05,5.68,7.56,8.06,11.33,2.72,4.32,1.38,8.51-3.77,10.1s-10.51,1.68-15.65,3c-14,3.54-28.08,7.13-42,11.18-5.33,1.55-10.27,4.41-16.76,7.28"/><path class="cls-4" d="M1540.79,940.55c7.76-3.27,16.15,1.45,19.07-9a608.74,608.74,0,0,1,.68,69.55h-19.78c4.64-10,9.35-18.84,12.81-28.16,1.66-4.45,1.17-9.77,1.27-14.7.1-5.25-2-8.33-7.93-9.35-2.27-.4-3.8-5-6.12-8.3"/><path class="cls-4" d="M1131,355.49c-9.56-4.81-12-8.43-10.06-19.06,3.28-17.61,2.06-35.2,1.92-52.84-.1-12.87,0-25.75,0-38.24,6.68-1.77,6.43,2,6.45,5.23.07,10.8-.17,21.62.12,32.42.14,5.29,1.84,10.58,1.66,15.83a247.76,247.76,0,0,1-2.56,30.82c-1.08,6.69-3.49,12.84,2.35,18.62,1,1,.14,3.92.14,7.22"/><path class="cls-4" d="M204.18,684.59,217.09,669c-4.42-4-7.68-7.49-11.51-10.2a22.86,22.86,0,0,0-9.59-4.15c-8.14-1.12-13.72-6.11-19.53-10.78,3.8-11.17,4.33-11,13.5-4.86,6.42,4.31,13.62,7.49,20.6,10.9,4.38,2.13,13.72,15.4,13.24,19.92a10.47,10.47,0,0,1-2.11,4.72c-2.38,3.27-4.59,6.87-7.66,9.38-2.19,1.8-5.67,2-8.57,3l-1.28-2.31"/><path class="cls-4" d="M1316.72,306.07c2.79,2.1,5.17,3,5.41,4.27a25,25,0,0,1-.25,8.53c-2.61,16.07-5.23,32.14-8.18,48.15-.81,4.38-3.34,8.45-4.07,12.84-1.8,10.83-2.93,21.77-4.54,32.64-.29,2-1.62,3.76-4,5.19-1.72-37.8,12.86-73,15.61-111.62"/><path class="cls-4" d="M1442.09,76.18c-.88,5.47-.48,11.6-2.89,16.29-6.48,12.63-4.24,25.26-.94,37.62,1.44,5.39-1.06,11.65,3.4,16.44.1.11-3.27,3.43-5,5.26l-3-.93c-1.54-8.9-2.68-17.89-4.73-26.66-2.48-10.66.13-21.14.17-31.7,0-7.79,3-14,10.22-17.39l2.84,1.07"/><path class="cls-4" d="M1260.21,443.79l31.24,5.46c2-8.42,4.13-17.33,6.25-26.24,6.64,2,6.81,5.77,1.19,26.51l10.6,4.92c-1.47,8.25-7.09,2.61-10.58,3.35-2.61,4.74-5.17,9.45-7.88,14.06a31,31,0,0,1-3.18-1.41c1.27-4.42,2.51-8.72,4.21-14.59-7.83-1.12-15.36-2.47-23-3.18-4.91-.46-9.59-.38-8.9-8.88"/><path class="cls-4" d="M435.3,246.64c-7.57-1.77-4.52-6.23-3.62-10l-77.1-13.57c3-2.36,4.62-4.66,6.1-4.58a188.8,188.8,0,0,1,21.23,2.21c15.68,2.61,31.32,5.51,46.94,8.46,3.37.64,6.61,2,10.26,3.13l-3.81,14.33"/><path class="cls-4" d="M1506.08,35.28c1.92,8.1-4,10.07-6.95,13.52s-6.51,6.25-9.76,9.28c2.71,4.51,5.1,8.48,7.77,12.94-10.14,4.4-10.26-2.84-12.66-9.23-4,3.13-7.84,5.86-11.4,8.88-6.85,5.81-6.8,5.87-11.76,3.72,11-17.26,25.58-29.95,44.76-39.11"/><path class="cls-4" d="M941.45,301.56c-.18-1.43-.47-3.72-.74-5.81,1.19-.6,1.81-1.2,2.46-1.22,25.88-.86,51.76-1.73,77.64-2.45,6-.16,6,.1,8.24,5.51l-87.6,4"/><path class="cls-4" d="M1102.54,989.88c10.11-10.24,11.8-10.34,19.4-2.27,3.75-5.8,9.62-2.55,14.53-3.42,4.49-.78,9-1.58,13.45-2.37l.24-2.21,7.7,7.1c-3.23,6.11-7.51,8.95-14.36,8.37-12.41-1.05-24.87-1.6-37.3-2.54-1.08-.08-2.06-1.46-3.66-2.66"/><path class="cls-4" d="M1337.33,717.61c-.09,1.25.88,5.76-.72,7-5.64,4.47,4.2,13.41-5.79,16.87-1.54-5.11-2.92-9.7-4.68-15.57-5.69-.74-12-1.58-18.24-2.36-5.3-.66-10.21-1.64-8.49-10.59,6.16.39,12.41.5,18.59,1.24,6,.71,11.91,2,19.33,3.38"/><path class="cls-4" d="M132.41,754.4,115,761.05l-2-2.46,6.15-8c-3-8.89-11.72-14-19-20.42-5.6-4.93-11.3-9.75-16.71-14.88-.55-.52.64-2.86,1.32-5.59C102.69,722.4,117,737,132.41,754.4"/><path class="cls-4" d="M151,693.42c-6.84,5.63-11.54,12.66-21.67,8.87-6.29-2.35-12.89-3.41-13.65-14.56L133.36,698,140.1,692l-11.84-17.92c1.09-.74,2.67-2.32,3.13-2C139.63,677,146,683.65,151,693.42"/><path class="cls-4" d="M174.17,710.81c2.56-7.74,11.83-7.06,16.59-12l-11.63-14.52c10.34-3.19,11.37,6.94,17.59,8.06l7.38-4.21c-1,7.57-1.82,13.37-2.8,20.52l-7.05-2.68L176,713.44c-.62-.87-1.23-1.75-1.85-2.63"/><path class="cls-4" d="M38.32,595.67,92.7,598.4v8.82c-7.43-1-14.08-2.1-20.77-2.71-10.3-1-20.65-1.43-30.94-2.45-1.4-.14-2.61-2.26-3.91-3.47.41-1,.82-2,1.24-2.92"/><path class="cls-4" d="M368.24,289.36l32,3.45c3.05-6.78,6.47-14.39,10.75-23.93,1.65,2.64,3.84,4.66,3.45,5.75a202.23,202.23,0,0,1-9.57,23.19c-.88,1.74-5,2.92-7.43,2.64-9.12-1.06-18.19-2.74-27.22-4.47-1.21-.23-2.11-2.08-3.15-3.18.37-1.15.75-2.3,1.13-3.45"/><path class="cls-4" d="M523.72,621.5,529.11,633l10.35-2.31,1.71,1.79-4.5,6.09c-.85,6.23-1.61,11.78-2.36,17.34l-1.41-.28c1.24,4,2.49,8,3.75,12-4,.59-4.27.4-10.65-9.22.77-2.92,1.08-6.22,2.49-9,2.63-5.13,2.65-8.18-3.71-10.61-5.33-2-6-12.7-1.06-17.39"/><path class="cls-4" d="M757.41,520.84l-57.28,3.93c.4-1.15.56-3.43,1.78-4.56,1.45-1.34,3.77-1.93,5.81-2.43,14.89-3.61,30-3.22,45.11-2.12,1.87.13,3.64,1.65,5.46,2.53l-.88,2.65"/><path class="cls-4" d="M306.61,157.79c-1.16-10.71,3.39-18.41,12.2-24.21,1.58-1,1.83-3.91,3.12-5.62s3.3-4.68,4.92-4.64A10.55,10.55,0,0,1,334,127c.84,1-.65,4.33-1.61,6.36-1.11,2.34-2.8,4.4-4.58,7.09L322,136.85c-.26,3.56-.49,6.9-.77,10.8l-7.66,1.81c-.47,2.17-1,4.8-1.63,7.59l-5.68.35Z"/><path class="cls-4" d="M1492.93,576.36c0-20.34,0-39.93.15-59.52,0-.41,2.33-.79,4.34-1.43,0,20.34,0,39.94-.15,59.53,0,.4-2.33.78-4.34,1.42"/><path class="cls-4" d="M1089.35,286.81l3.84,8.55H1039c-1.43-4.71,1.18-5.44,4.46-5.45,10.13,0,20.27.23,30.38-.16,4.49-.17,8.92-1.63,15.53-2.94"/><path class="cls-4" d="M1103.53,224.22c3.24,1.07,5,1.38,5,1.7.13,18.9.12,37.81.12,58.16-2.3-1.7-4.94-2.74-5-3.81-.25-18.27-.18-36.54-.18-56"/><path class="cls-5" d="M0,835.54l14.27-8.28,2,2.91c.64-.15,1.21-.15,1.26-.32,2.62-8.78,10.69-5,16.21-7.12,4.91-1.88,8.43-5.26,9.43-10.78,1.06-5.89,4.7-10,9.35-13.51a31.52,31.52,0,0,0,5.21-5.18Q67,782.06,76,770.7c6.15-7.67,14.19-8.89,23.21-7,2.37.49,4.77.86,8.07,1.45-.69-2-1.11-3.27-1.07-3.16l18.14-4.45c9.53-12,17.5-23.12,26.6-33.21,7.83-8.7,32.44-11.23,42.78-5.49,1.55.86,3.49,1.83,4.19,3.27,6.89,13.95,18.41,24.95,23.49,40.33,3.65,11.07,11.58,20.71,17.42,31.08,9.69,17.18,19.4,34.34,28.7,51.73,2,3.67,1.93,8.35,3.26,12.42,1.08,3.31-1.27,8.58,5,9.37.55.07.89,2.29,1.23,3.53.89,3.24,1.53,6.56,2.64,9.71,1,2.9,2.83,5.53,3.79,8.44,3.28,10.06,6.35,20.2,9.66,30.81,10.74-.55,14.81,6.2,17.26,14.63,2.4,8.21,4.63,16.47,7.1,24.67a72.84,72.84,0,0,0,3.2,7.5C314,970.94,309,977.88,299,976.24c-3.41-.55-7.76,3.23-11.35,5.54-7.35,4.71-14.53,9.69-21.62,14.77-.87.62-.8,2.55-1.17,3.86H0Z"/><path class="cls-5" d="M717.25,601.38c1.06-6.1,3-12.31,3-18.52.05-14.76,8.64-29.37,0-44.89H706.47c-1,21.44-4.91,42-3.24,63.41Zm-64.49-64.32A101.62,101.62,0,0,0,693.6,527c7.79-3.78,17.36-4.73,26.24-5.27,22.74-1.4,45.41.43,68,3.74,4.62.68,9.38.37,14.08.64,8.5.49,9.14,1.49,8.26,9.82-2.61,24.72-7,49.33-5.23,74.36.13,1.78.3,3.55.53,6.13l19.48,6c-1.35,2.91-2.08,5.61-3.65,7.67a175.57,175.57,0,0,1-12.51,14.84,19.19,19.19,0,0,1-8,5c-11.62,3.44-16.11,14.78-9.5,24.83,1.19,1.82,2.44,3.6,3.48,5.5,5.3,9.75,5.16,10.58-3.44,20.57-3.79-1.92-7.82-4-11.89-6s-8.2-4.91-12.64-6c-15-3.75-19.88-10.55-21.3-29.41-.08-1.05,0-2.11,0-3.87-11.82-5.2-24-8.5-38.12-6.41-.87,2.68-1.92,5.94-3.48,10.78l-20.16-4.78c1.46-4.78,2.46-8.08,3.73-12.26l-8.42-1.07c-.55,1.26-1.09,1.9-1,2.49.25,3.22,1,6.44.9,9.64-.15,5.89,2.66,7.6,8.24,8.93,11.84,2.83,23.39,6.92,35,10.79,2.1.7,3.72,2.84,4.6,3.55-3.9,6.73-7.3,12.59-11.56,20L574.69,655.26l-4.29-8,13.85-14.63c-2.54-13.09,4.41-22.25,17.57-21.63-1.55-1.75-2.45-3.77-3.71-4-9-1.8-11.55-8.53-13.24-16.2-1.31-6-3.15-11.82-4.31-17.81-1.88-9.72,3.1-17.08,13.05-18.59l18.24,28.23c2.54-2.19,4.71-3.87,6.64-5.79,2.39-2.37,4.07-4.4,8.51-4.29,2.91.06,6.6-5,8.76-8.48,3.56-5.75,6.45-11.41,13.14-14.82,2.46-1.25,2.46-7.31,3.86-12.13"/><path class="cls-5" d="M989.93,891.76c11.2-4.15,21.82-8.15,32.5-12,1.21-.43,3.48-.33,4.11.45,5.76,7.16,12.34,1.32,17.94.38,3.17-.53,5.39-6.69,9.17-11.87l23.06-3.76c3.6,12.62,7.87,24.4,10,36.56.84,4.77-1.74,11.74-5.25,15.2s-5.53,6.39-5,10.87c1.15,10.12-4.61,14.43-12.91,18.49-16.36,8-34,10.42-51.57,15.16-11.62-21.78-15.29-45.17-22-69.52"/><path class="cls-5" d="M1007.41,205.64l-69.8,3c-3.11-15.64-6-29.89-9.18-46.14,18.07,1.42,34.05,2.64,50,3.95,5,.4,9.95,1.13,14.94,1.56,8.91.77,10.57,2.51,11.27,11s1.73,16.93,2.75,26.63"/><path class="cls-5" d="M603.2,39.89l17.56,31.77c-2.54,1.91-4.34,3.54-6.39,4.76-8.32,5-9,7.14-3.85,15.29,2.11,3.34,5.08,6.14,7.17,9.48,4.3,6.87,3.2,10.19-4.22,13.41-2.89,1.26-6,2.08-10.22,3.52L564.48,61.58c12.35-10.1,25.83-15,38.72-21.69"/><path class="cls-5" d="M209.74,207.52c1,3.81,1.42,6.6,2.42,9.16,1.06,2.72,2.7,5.21,4,7.85,1.5,3.12,3.66,6.16,4.2,9.46,2.39,14.49,4.29,29.07,6.46,44.17-12.52,5-25.37,3.07-39.7,4.55,0-12,0-22.65,0-33.34,0-.71,0-1.67.39-2.09,9.4-9.51,9.73-23.2,15.9-34.16,1.12-2,3.56-3.21,6.33-5.6"/><path class="cls-5" d="M282.41,95.87C271.14,96.51,275.3,86,273,80l8.74-9.85-12.65-7.59-15.79,11c-4.06-2-6.3-4.25-3.64-8.55q16.4-26.49,32.85-53c.31-.5,1.2-.64,3-1.52C291,18.53,279.79,23.8,283,32.52c1.68.71,4.79,2,7.87,3.32,2.88,1.27,5.71,2.62,9.13,4.19-1.2,3.4-1.81,6.21-3.11,8.64-2.71,5.07-5.74,9.53-2.64,16,1.13,2.36-1.45,6.7-2.75,10-2.66,6.64-5.6,13.17-9.06,21.23"/><path class="cls-5" d="M336.81,721.34c-1.45-4.66-2.91-9.32-4.38-14.06,3.23-4.88,8.19-3.41,12.73-3.45,9-.1,11.2-2.71,8-11.28-2.44-6.64-6.12-12.83-9.61-20L356.18,667c3.54,2.4,7.42,4.93,11.21,7.6,11.49,8.08,12.2,12,3.81,24L379.52,716c-11.18,9.51-21.44,20-38,16.06l-4.71-10.74"/><path class="cls-5" d="M285.6,262.16c-.52-6.73-.91-11.72-1.35-17.42l28.42-2.86c.37-7.4.69-13.78,1.06-21h12.32l3.76,18.54h31.76c-.7,7-1.3,13.05-1.92,19.28l-74,3.49"/><path class="cls-5" d="M82.83,144.93,70.16,146.1c-.86-10.58-1.68-20.73-2.64-32.65,5.16,1,8.83,1.54,12.43,2.37s6.9,1.76,10.29,2.84c6.14,2,9.7-.55,11.36-6.37C105,100.22,109.69,88.42,109,75.5c-.24-4.68-.08-9,4.49-12.55,2-1.56,2-5.79,3.17-9.65L127,52.83c-.75,8.71-1.41,16.38-2.11,24.55l-12.32,1c.67,19.77,1.34,39.31,2,59.3l-12.94,5.89c-4.46-2.77-4.24-11.53-11.1-8.37-2.92,1.35-4.52,5.55-7.68,9.73"/><path class="cls-5" d="M551.31,727.56l-15.88,15.71c-6.21-13.41-11.49-25-17-36.48-1.64-3.45-4.76-6.43-5.54-10-1.78-8.07-3.61-16.4-3.36-24.57.23-7.15,7-10.46,13-14l28.76,69.34"/><path class="cls-5" d="M594.75,24.35,549.28,49.67c1-14.69-13.13-22-15-35,3.94-5.74,9.53-7.67,16.53-7.3,7.19.38,14.4.08,21.61.08,15.31,0,15.31,0,22.35,16.93"/><path class="cls-5" d="M450,61.37V91.13l-43,3c.5-5.1.89-9.06,1.3-13.29L400.76,78V64.22h16.75l5.08-8.84c9,3.44,16.57,12,27.38,6"/><path class="cls-5" d="M1163.14,29.11c-2.14,2.08-4.71,6.74-7.46,6.83-6,.22-6.61-5.26-6.55-10.2,0-2.88.1-5.77,0-8.64-.17-5,2.34-7.43,7.18-7.24,17,.68,34,1.48,51.52,2.26,1.06,7.7,2.07,15,3.14,22.68-3,.6-5.06,1.38-7.08,1.35-10.74-.2-21.48-.89-32.22-.84-6,0-8.81-2.17-8.53-6.2"/><path class="cls-5" d="M969.8,612.4c3.79-5.57,7.39-6.12,11.72-1.45,5.72,6.19,11.66,12.19,17.18,17.94-2.45,4.86-4.3,8-5.63,11.3-3,7.51-7.74,10.65-16.42,10.78-8,.12-16,3.71-24,5.57-4.35,1-8.79,1.62-13.18,2.4-.52-.87-1-1.74-1.55-2.61L973.76,620l-4-7.6"/><path class="cls-5" d="M1244.51,409.83l-11.61-4.23,8.89-1.44-6-3.86c1.16-6.53,2.31-13.05,3.54-20l8,1c-.65,5.48-1.22,10.28-2.11,17.74l5-4.64,19.26,4.89c-2.78,13.42-5.7,27.54-8.63,41.65l-1.61.31-4.27-11.4c-8.33-.93-8,5.87-11.3,10.37l-14.34-2.68c1-6.76,1.91-12.64,3-19.51l8.19-.78c1.3,2.51,2.57,4.94,3.84,7.38.87-.45,1.92-.8,1.89-1-1-8.11,5.9-15.5,3.75-23.7l-2.69-.51c-.9,3.4-1.79,6.8-2.73,10.38"/><path class="cls-5" d="M264.65,812.15c-7.2-4.26-4.39-18.69-19.42-14.29,3.9-6.08,5.1-10.93-.27-15.4a9,9,0,0,1-2.83-6.79c.87-8.24-4-14-7.59-20.46-.92-1.64-1.3-3.59-2.47-7,10.43,4.3,8.49,15.29,15.64,20.52l19.74-10c.73,4.43,1.33,8.13,2.11,12.87l-13.67,6.73,13.19,7.45-12,8.13c3.81,6.88,4.89,15.38,14,19,2.18.87,4.45,5.58,4,8.1-1.48,9.14,4.11,14.76,9.4,22.51l23.52-11.79c.47,1,.94,2,1.42,3-11.74,4.66-21.25,13.47-33.24,17.66l-1.55-2,5.31-7.13c-4.95-6.44-5.81-15.59-15.47-19.18-5.45-2-3.08-7.75.11-12"/><path class="cls-5" d="M264.72,622.77c-5.88,1.12-11.48,2.16-17.06,3.25-8.87,1.72-15.25-1-16.85-7.16-1.91-7.35.15-10.33,10.86-14.75-.73-9.48-1.48-19.29-2.38-30.87l25.9,2.33c-7.61,10.85-9.61,20.79-4.32,31.45a117.53,117.53,0,0,1,4.76,11.28c.31.84-.38,2.06-.91,4.47"/><path class="cls-5" d="M200.4,300.29c3,21,5.8,40.77,8.6,60.53-14,1.6-17.89-2-19.76-13.56-1.78-11.12-.83-22.67-7.13-33.23-4.5-7.54.52-14.28,9.3-14.62,2.77-.1,5.57.52,9,.88"/><path class="cls-5" d="M1546.63,313.29c-1.86.38-3.26,1-4.58.88-7.47-.8-14.91-1.79-24-2.91,1.14-12.31,2.25-24.15,3.5-37.57l27.55,5.85c-.82,11.22-1.63,22.35-2.47,33.75"/><path class="cls-5" d="M870.21,630.06l27.17,10.22c-1.48,9.05-2.74,16.74-4,24.59-13.67,2.77-11.88-12.1-19.73-15.12l6-11.91c-6-4.53-8.76-1.23-9.22,3-1.22,11.27-10,19-12.83,29.46-.21.73-1.64,1.13-2.59,1.74-1.63-8.36,2.23-19.1,15.17-42"/><path class="cls-5" d="M1535.13,39.34c-.48,4.4-.87,7.94-1.32,12.11h-12.18c-1.08-3.05-2.23-6.29-3.42-9.67l-11-2.34c15.55-12,33.28-14.93,50.35-23.65.21,5.71,1.15,10.63.22,15.17-.46,2.22-4.12,4.58-6.78,5.39-5.06,1.55-10.44,2-15.87,3"/><path class="cls-5" d="M652.93,53.48,636.56,25l20.53-12.54c5.6,10.12,10.52,19,15.83,28.59l-20,12.47"/><path class="cls-5" d="M1557.75,444.38v40.36l-13.14,1.85c0-5-.82-9.51.17-13.62,2.45-10.18,1.46-13.05-8.78-17.76-.14-3-.29-6.45-.49-10.83Z"/><path class="cls-5" d="M1457,975.83c14.42-3.26,24.52,4.19,37,6.12-2,5.25-3,9.43-5,13-2.5,4.39-28.32,5-29.81.43-1.92-5.83-1.52-12.41-2.21-19.57"/><path class="cls-5" d="M1072.78,25.6c-.62-6-1.17-11.34-1.8-17.51h32.8v12.5l-31,5"/><path class="cls-5" d="M826,497.58c4.45,9.08-3.77,13.25-6.83,14.34-6.94,2.46-15.12,1.42-23.39,1.83v-18.6L826,497.58"/><path class="cls-5" d="M1557.78,615.35l-17.63,3.34-4.74-25c8.42.17,15.06-5.7,22.37.94Z"/><path class="cls-5" d="M68.05,293.94l-12.53-7.85V257.78H68.05Z"/><path class="cls-5" d="M540.12,673.55c-2.74-6.37-4.93-11.45-7.57-17.61l21.18-9.15c2.52,5.31,4.85,10.24,7.64,16.14l-21.25,10.62"/><path class="cls-5" d="M416.31,234.14h9c2.49,10.7,1.94,11.31-6.78,16-2.85,1.52-5.3,4.53-6.93,7.42-2.24,4-3.53,8.48-5.21,12.71-7.3-2-7.71-3.8-5.38-22.72H414c.81-4.58,1.52-8.64,2.35-13.38"/><path class="cls-5" d="M1230.68,648.93c-12.32-1.82-24.4-3.39-36.39-5.51-3.85-.69-3.89-2.71-.66-10.68,11.33,2,23,3.93,34.55,6.15,5,1,5,4.34,2.5,10"/><path class="cls-5" d="M1432.27,871.67c-1.42-3.58-2.94-7.41-4.72-11.92l20.12-12.44c3.17,3.46,7.57,6.45,5.75,12.32-2,6.37-9.43,10.55-21.15,12"/><path class="cls-5" d="M141.1,167.71c-7.29-1.74-12.85-2.42-17.86-4.46-4.3-1.75-4.13-6.13-.69-9.62,3-3.06,5.74-6.41,9.54-10.71,7.91-1,8.59-.57,9,7.82.22,4.91,0,9.84,0,17"/><path class="cls-5" d="M336.81,721.34l4.71,10.74c-2.37,9.45-12.1,8.77-18.44,14-1.4-5.13-2.62-9.65-4.21-15.5,4.23-4.63,8-12.19,17.94-9.23"/><path class="cls-5" d="M1494.57,894.85l-14.87,3.86-6.59-20.35,26.83,2.78.87,1.92c-5,2.51-11.71,4-6.24,11.79"/></g><rect class="cls-1" width="1561.96" height="1002.09"/><path class="cls-6" d="M95.79,884.35A27.36,27.36,0,1,0,123.14,857a27.34,27.34,0,0,0-27.35,27.36"/><path class="cls-6" d="M307.34,661.09a30.87,30.87,0,1,0,30.87-30.87,30.87,30.87,0,0,0-30.87,30.87"/><path class="cls-6" d="M478.79,687.94a27.76,27.76,0,1,0,27.76-27.76,27.76,27.76,0,0,0-27.76,27.76"/><path class="cls-6" d="M807.24,493.94a28.81,28.81,0,1,0,28.81-28.8,28.81,28.81,0,0,0-28.81,28.8"/><path class="cls-6" d="M1260.08,370.87a29.11,29.11,0,1,0,37.62-16.72,29.09,29.09,0,0,0-37.62,16.72"/><path class="cls-6" d="M1345,413.71a26.57,26.57,0,1,0,34.34-15.26A26.57,26.57,0,0,0,1345,413.71"/><text class="cls-7" transform="translate(118.14 896.42)">1</text><text class="cls-7" transform="translate(329.59 672.59)">2</text><text class="cls-7" transform="translate(497.92 699.8)">3</text><text class="cls-7" transform="translate(826.05 505.05)">4</text><text class="cls-7" transform="translate(1279.24 393.67)">5</text><text class="cls-7" transform="translate(1361.84 434.68)">6</text></svg>