<svg xmlns="http://www.w3.org/2000/svg" viewBox="0 0 212.09 212.09"><defs><style>.cls-1{fill:#f5f3d9;}</style></defs><title>Asset 1</title><g id="Layer_2" data-name="Layer 2"><g id="Layer_1-2" data-name="Layer 1"><path class="cls-1" d="M20.3,43.65A106.54,106.54,0,0,0,9.43,62.26L73.19,86.62Z"/><path class="cls-1" d="M.6,94.78A104.78,104.78,0,0,0,0,106q0,5.25.5,10.36l67.61-10.81Z"/><path class="cls-1" d="M9.09,149a105.4,105.4,0,0,0,10.79,18.82l53.31-43.31Z"/><path class="cls-1" d="M62.5,202.76l24.57-64.32L43.7,191.83A106.23,106.23,0,0,0,62.5,202.76Z"/><path class="cls-1" d="M202.65,62.26a105.87,105.87,0,0,0-10.86-18.61l-52.89,43Z"/><path class="cls-1" d="M44.17,19.92l42.9,52.81L62.8,9.19A106.42,106.42,0,0,0,44.17,19.92Z"/><path class="cls-1" d="M116.78.54a107,107,0,0,0-21.47,0L106,67.65Z"/><path class="cls-1" d="M149.29,9.19,125,72.73l42.91-52.81A106.42,106.42,0,0,0,149.29,9.19Z"/><path class="cls-1" d="M211.49,94.78,144,105.59l67.6,10.81c.33-3.41.51-6.86.51-10.36A107.43,107.43,0,0,0,211.49,94.78Z"/><path class="cls-1" d="M95.16,211.53a106,106,0,0,0,21.76,0l-10.88-68Z"/><path class="cls-1" d="M192.21,167.86A106,106,0,0,0,203,149l-64.1-24.49Z"/><path class="cls-1" d="M149.59,202.76a105.79,105.79,0,0,0,18.79-10.93L125,138.44Z"/></g></g></svg>