<svg xmlns="http://www.w3.org/2000/svg" viewBox="0 0 212.73 200.96"><defs><style>.cls-1{fill:#f5f3d9;}</style></defs><title>Asset 5</title><g id="Layer_2" data-name="Layer 2"><g id="Layer_1-2" data-name="Layer 1"><path class="cls-1" d="M117.62,0h1a95,95,0,0,1,94.13,95.65h0V96A106.31,106.31,0,0,1,105.32,201,106.32,106.32,0,0,1,0,93.92H0v-.37l9.58.11a96.71,96.71,0,0,0,95.82,97.71h1a96.72,96.72,0,0,0,96.75-95.62A85.49,85.49,0,0,0,32.16,94a74.21,74.21,0,0,0,148.41,1.34A62.92,62.92,0,0,0,54.73,94.25,51.64,51.64,0,0,0,158,95.2a40.32,40.32,0,0,0-40-40.47h-.4A40.39,40.39,0,0,0,77.3,94.47a29,29,0,0,0,28.78,29.19h.29A29,29,0,0,0,135.43,95.1a17.81,17.81,0,0,0-17.61-17.8h-.17A17.8,17.8,0,0,0,99.87,94.67a6.5,6.5,0,0,0,13,0l9.58.1a16.08,16.08,0,0,1-16.07,15.92h-.16A16,16,0,0,1,90.29,94.81h0v-.37h0a27.39,27.39,0,0,1,27.35-26.72h.28A27.39,27.39,0,0,1,145,95h0v.37a38.65,38.65,0,0,1-77.29-.76h0v-.37h0a49.93,49.93,0,0,1,99.86,1h0v.38h0a61.22,61.22,0,0,1-122.44-1.2h0V94h0a72.45,72.45,0,0,1,72.48-71.42h.73a72.6,72.6,0,0,1,71.8,72.83h0v.37h0A83.81,83.81,0,0,1,46.52,153.27a83.27,83.27,0,0,1-24-59.13h0v-.37h0A95,95,0,0,1,117.62,0Z"/></g></g></svg>