<svg xmlns="http://www.w3.org/2000/svg" viewBox="0 0 212 212"><defs><style>.cls-1{fill:#f5f3d9;}</style></defs><title>Asset 4</title><g id="Layer_2" data-name="Layer 2"><g id="Layer_1-2" data-name="Layer 1"><polygon class="cls-1" points="124.66 101 200.3 57.33 195.3 48.67 119.66 92.34 163.33 16.7 154.67 11.7 111 87.34 111 0 101 0 101 87.34 57.33 11.7 48.67 16.7 92.34 92.34 16.7 48.67 11.7 57.33 87.34 101 0 101 0 111 87.34 111 11.7 154.67 16.7 163.33 92.34 119.66 48.67 195.3 57.33 200.3 101 124.66 101 212 111 212 111 124.66 154.67 200.3 163.33 195.3 119.66 119.66 195.3 163.33 200.3 154.67 124.66 111 212 111 212 101 124.66 101"/></g></g></svg>